<svg xmlns="http://www.w3.org/2000/svg" viewBox="0 0 512 512">
  <rect width="512" height="512" rx="115" fill="#4256C8"/>
  <g fill="#ffffff" transform="translate(91.0,141.3) scale(1.8182)">
    <path d="M3.03,82.27c-5.15,4.75-3.48,13.26,3.07,15.72l49.97,18.76c.51,.17,.95-.38,.67-.83,0,0-14.13-18.71,8.6-39.84,22.73-21.13,47.06-23.9,47.06-23.9,0,0,32.53-6.82,42.74,17.42,.15,.36,.61,.48,.91,.22l22.76-20.24c4.37-3.89,3.28-10.99-2.06-13.39L99.7,1.05c-4.56-2-9.88-1.1-13.54,2.28L3.03,82.27Z"/>
    <path d="M125.55,60.2c7.99,0,14.76,1.79,19.56,5.18,2.43,1.7,4.44,3.94,5.8,6.46,1.38,2.56,2.11,5.47,2.11,8.43,0,5.01-2.01,10.51-5.82,15.9-5.69,8.1-15.11,15.67-26.52,21.31-11.37,5.59-23.47,8.67-34.08,8.67-7.97,0-14.75-1.79-19.6-5.17-2.51-1.76-4.52-3.99-5.81-6.47-1.35-2.46-2.06-5.37-2.06-8.42,0-5.05,2-10.55,5.77-15.9,5.64-8.09,15.07-15.65,26.53-21.27,11.32-5.61,23.44-8.71,34.11-8.71Z"/>
  </g>
</svg>
